<svg xmlns="http://www.w3.org/2000/svg" viewBox="0 0 640 640">
  <defs>
    <linearGradient id="gradientePlus" x1="0%" y1="0%" x2="100%" y2="100%">
      <stop offset="0%" stop-color="#D29283" />
      <stop offset="59%" stop-color="#A8446A"/>
      <stop offset="80%" stop-color="#3A245D"/>
      <stop offset="100%" stop-color="#0F4F72"/>
    </linearGradient>
  </defs>

  <path 
    fill="url(#gradientePlus)" 
    d="M512 160L512 416L128 416L128 160L512 160zM128 96C92.7 96 64 124.7 64 160L64 416C64 451.3 92.7 480 128 480L272 480L256 528L184 528C170.7 528 160 538.7 160 552C160 565.3 170.7 576 184 576L456 576C469.3 576 480 565.3 480 552C480 538.7 469.3 528 456 528L384 528L368 480L512 480C547.3 480 576 451.3 576 416L576 160C576 124.7 547.3 96 512 96L128 96z"/>
</svg>